# Blender v3.2.0 OBJ File: ''
# www.blender.org
mtllib mainmenu.mtl
o Plane_Plane.001
v -7.138740 -0.532854 5.313363
v 7.250678 -0.483262 5.431429
v -6.965970 4.873049 -10.275214
v 7.243689 4.863678 -10.265347
v -6.425518 -0.092000 -0.756861
v -6.525739 1.579128 -6.254154
v -6.425727 -0.093738 -0.885965
v -6.425975 -0.092467 -1.019327
v -6.426268 -0.088184 -1.156708
v -6.426606 -0.080893 -1.297861
v -6.426992 -0.070600 -1.442532
v -6.427433 -0.057319 -1.590464
v -6.427932 -0.041068 -1.741390
v -6.428496 -0.021868 -1.895040
v -6.429127 0.000253 -2.051138
v -6.429835 0.025265 -2.209406
v -6.430625 0.053132 -2.369559
v -6.431508 0.083813 -2.531312
v -6.432490 0.117266 -2.694376
v -6.433581 0.153441 -2.858458
v -6.434796 0.192289 -3.023266
v -6.436142 0.233752 -3.188508
v -6.437635 0.277774 -3.353886
v -6.439290 0.324291 -3.519107
v -6.441121 0.373241 -3.683878
v -6.443144 0.424553 -3.847905
v -6.445380 0.478159 -4.010898
v -6.447845 0.533986 -4.172567
v -6.450561 0.591956 -4.332625
v -6.453547 0.651993 -4.490790
v -6.456827 0.714015 -4.646783
v -6.460421 0.777939 -4.800326
v -6.464351 0.843678 -4.951150
v -6.468638 0.911143 -5.098989
v -6.473303 0.980242 -5.243582
v -6.478365 1.050876 -5.384672
v -6.483840 1.122946 -5.522012
v -6.489742 1.196346 -5.655358
v -6.496078 1.270963 -5.784475
v -6.502851 1.346679 -5.909132
v -6.510060 1.423370 -6.029107
v -6.517696 1.500900 -6.144183
v 6.531478 1.578239 -6.246789
v 6.427373 -0.091863 -0.756086
v 6.523199 1.500277 -6.137392
v 6.515334 1.422988 -6.022860
v 6.507906 1.346516 -5.903399
v 6.500919 1.270992 -5.779222
v 6.494378 1.196544 -5.650555
v 6.488276 1.123290 -5.517625
v 6.482607 1.051344 -5.380671
v 6.477356 0.980812 -5.239936
v 6.472507 0.911798 -5.095669
v 6.468042 0.844399 -4.948129
v 6.463943 0.778711 -4.797577
v 6.460186 0.714824 -4.644280
v 6.456748 0.652826 -4.488512
v 6.453613 0.592804 -4.330549
v 6.450755 0.534838 -4.170674
v 6.448153 0.479009 -4.009169
v 6.445792 0.425393 -3.846324
v 6.443649 0.374065 -3.682429
v 6.441707 0.325097 -3.517776
v 6.439949 0.278555 -3.352659
v 6.438359 0.234507 -3.187373
v 6.436926 0.193015 -3.022213
v 6.435633 0.154137 -2.857476
v 6.434470 0.117929 -2.693455
v 6.433425 0.084442 -2.530445
v 6.432488 0.053726 -2.368737
v 6.431652 0.025823 -2.208621
v 6.430906 0.000774 -2.050383
v 6.430246 -0.021385 -1.894308
v 6.429664 -0.040623 -1.740674
v 6.429153 -0.056914 -1.589758
v 6.428711 -0.070236 -1.441831
v 6.428331 -0.080571 -1.297156
v 6.428011 -0.087906 -1.155995
v 6.427747 -0.092234 -1.018599
v 6.427535 -0.093552 -0.885216
vt 0.000000 0.693922
vt 1.000000 0.693922
vt 1.000000 1.000000
vt 0.000000 1.000000
vt 0.000000 0.685549
vt 1.000000 0.685549
vt 0.000000 0.676905
vt 1.000000 0.676905
vt 0.000000 0.668007
vt 1.000000 0.668007
vt 0.000000 0.658870
vt 1.000000 0.658870
vt 0.000000 0.649510
vt 1.000000 0.649510
vt 0.000000 0.639945
vt 1.000000 0.639945
vt 0.000000 0.630192
vt 1.000000 0.630192
vt 0.000000 0.620268
vt 1.000000 0.620268
vt 0.000000 0.610191
vt 1.000000 0.610191
vt 0.000000 0.599980
vt 1.000000 0.599980
vt 0.000000 0.589653
vt 1.000000 0.589653
vt 0.000000 0.579227
vt 1.000000 0.579227
vt 0.000000 0.568723
vt 1.000000 0.568723
vt 0.000000 0.558159
vt 1.000000 0.558159
vt 0.000000 0.547554
vt 1.000000 0.547554
vt 0.000000 0.536928
vt 1.000000 0.536928
vt 0.000000 0.526299
vt 1.000000 0.526299
vt 0.000000 0.515686
vt 1.000000 0.515686
vt 0.000000 0.481182
vt 1.000000 0.481182
vt 0.000000 0.468450
vt 1.000000 0.468450
vt 0.000000 0.455698
vt 1.000000 0.455698
vt 0.000000 0.442949
vt 1.000000 0.442950
vt 0.000000 0.430227
vt 1.000000 0.430227
vt 0.000000 0.417554
vt 1.000000 0.417554
vt 0.000000 0.404952
vt 1.000000 0.404952
vt 0.000000 0.392445
vt 1.000000 0.392445
vt 0.000000 0.380055
vt 1.000000 0.380055
vt 0.000000 0.367805
vt 1.000000 0.367805
vt 0.000000 0.355716
vt 1.000000 0.355716
vt 0.000000 0.343810
vt 1.000000 0.343810
vt 0.000000 0.332109
vt 1.000000 0.332109
vt 0.000000 0.320634
vt 1.000000 0.320634
vt 0.000000 0.309406
vt 1.000000 0.309406
vt 0.000000 0.298444
vt 1.000000 0.298444
vt 0.000000 0.287769
vt 1.000000 0.287769
vt 0.000000 0.277399
vt 1.000000 0.277399
vt 0.000000 0.267354
vt 1.000000 0.267354
vt 0.000000 0.000000
vt 1.000000 0.000000
vn -0.0002 0.7938 0.6082
vn -0.0002 0.7934 0.6086
vn -0.0001 0.7739 0.6333
vn -0.0003 0.8217 0.5700
vn -0.0002 0.8356 0.5493
vn -0.0002 0.8483 0.5295
vn -0.0002 0.8600 0.5103
vn -0.0002 0.8707 0.4918
vn -0.0002 0.8806 0.4739
vn -0.0002 0.8897 0.4566
vn -0.0002 0.8981 0.4398
vn -0.0002 0.9059 0.4235
vn -0.0001 0.9131 0.4077
vn -0.0001 0.9199 0.3922
vn -0.0001 0.9199 0.3923
vn -0.0001 0.9261 0.3772
vn -0.0001 0.9320 0.3624
vn -0.0001 0.9375 0.3480
vn -0.0001 0.9427 0.3337
vn -0.0001 0.9475 0.3196
vn -0.0001 0.9521 0.3057
vn -0.0001 0.9565 0.2919
vn -0.0001 0.9606 0.2781
vn -0.0001 0.9644 0.2643
vn -0.0001 0.9681 0.2505
vn -0.0001 0.9716 0.2366
vn -0.0001 0.9749 0.2225
vn -0.0001 0.9781 0.2083
vn -0.0001 0.9810 0.1938
vn -0.0001 0.9838 0.1790
vn -0.0001 0.9865 0.1639
vn -0.0000 0.9889 0.1484
vn -0.0000 0.9912 0.1323
vn -0.0000 0.9933 0.1157
vn -0.0000 0.9951 0.0984
vn -0.0000 0.9968 0.0804
vn -0.0000 0.9981 0.0614
vn -0.0000 0.9991 0.0415
vn -0.0000 0.9998 0.0205
vn -0.0000 1.0000 -0.0018
vn -0.0011 0.9996 0.0287
vn -0.0011 0.9996 0.0289
vn -0.0021 0.9977 0.0678
usemtl None
s 1
f 6/1/1 43/2/2 4/3/3 3/4/3
f 43/2/2 6/1/1 42/5/4 45/6/4
f 45/6/4 42/5/4 41/7/5 46/8/5
f 46/8/5 41/7/5 40/9/6 47/10/6
f 47/10/6 40/9/6 39/11/7 48/12/7
f 48/12/7 39/11/7 38/13/8 49/14/8
f 49/14/8 38/13/8 37/15/9 50/16/9
f 50/16/9 37/15/9 36/17/10 51/18/10
f 51/18/10 36/17/10 35/19/11 52/20/11
f 52/20/11 35/19/11 34/21/12 53/22/12
f 53/22/12 34/21/12 33/23/13 54/24/13
f 54/24/13 33/23/13 32/25/14 55/26/15
f 55/26/15 32/25/14 31/27/16 56/28/16
f 56/28/16 31/27/16 30/29/17 57/30/17
f 57/30/17 30/29/17 29/31/18 58/32/18
f 58/32/18 29/31/18 28/33/19 59/34/19
f 59/34/19 28/33/19 27/35/20 60/36/20
f 60/36/20 27/35/20 26/37/21 61/38/21
f 61/38/21 26/37/21 25/39/22 62/40/22
f 62/40/22 25/39/22 24/41/23 63/42/23
f 63/42/23 24/41/23 23/43/24 64/44/24
f 64/44/24 23/43/24 22/45/25 65/46/25
f 65/46/25 22/45/25 21/47/26 66/48/26
f 66/48/26 21/47/26 20/49/27 67/50/27
f 67/50/27 20/49/27 19/51/28 68/52/28
f 68/52/28 19/51/28 18/53/29 69/54/29
f 69/54/29 18/53/29 17/55/30 70/56/30
f 70/56/30 17/55/30 16/57/31 71/58/31
f 71/58/31 16/57/31 15/59/32 72/60/32
f 72/60/32 15/59/32 14/61/33 73/62/33
f 73/62/33 14/61/33 13/63/34 74/64/34
f 74/64/34 13/63/34 12/65/35 75/66/35
f 75/66/35 12/65/35 11/67/36 76/68/36
f 76/68/36 11/67/36 10/69/37 77/70/37
f 77/70/37 10/69/37 9/71/38 78/72/38
f 78/72/38 9/71/38 8/73/39 79/74/39
f 79/74/39 8/73/39 7/75/40 80/76/40
f 80/76/40 7/75/40 5/77/41 44/78/42
f 1/79/43 2/80/43 44/78/42 5/77/41
